<svg width="12" height="17" viewBox="0 0 12 17" fill="none" xmlns="http://www.w3.org/2000/svg">
<path d="M10.511 8.74355C10.4393 9.78564 9.84505 10.5172 9.15897 10.8273C8.43151 11.156 7.69621 10.9747 7.3291 10.376C6.72804 9.39586 7.14106 8.71368 7.54044 8.05393C7.9933 7.30583 8.50662 6.45789 8.01428 4.80896C7.62562 3.50717 6.86443 2.41427 5.75183 1.56058C5.40499 1.29449 5.07605 1.09436 4.8091 0.95105C5.18195 1.85861 5.66681 3.54746 5.16034 5.41333C4.83912 6.59686 3.99017 7.49374 3.16917 8.36108C2.08783 9.50352 0.96962 10.6848 0.96962 12.5723C0.96962 14.0365 1.47977 15.203 2.48585 16.0392C3.24772 16.6725 4.02515 16.9191 4.03289 16.921H5.88798L5.84915 16.9203C5.84199 16.9147 5.13525 16.3569 5.12308 15.7171C5.11741 15.418 5.27434 15.1312 5.5895 14.8645C6.0629 14.4639 6.32308 14.0326 6.38498 13.546C6.42283 13.2483 6.38456 12.9337 6.26824 12.594C7.05342 12.9233 7.86561 13.6423 8.14084 14.5349C8.38802 15.3364 8.15937 16.1607 7.48024 16.921H9.51044C10.8403 15.8792 11.589 14.6306 11.7357 13.2101C11.9228 11.3989 11.0948 9.69305 10.511 8.74355Z" fill="#0C0B0B"/>
</svg>
